<svg id="behance" xmlns="http://www.w3.org/2000/svg" width="28.274" height="28.274" viewBox="0 0 28.274 28.274">
  <path id="Path_4388" data-name="Path 4388" d="M0,0H28.274V28.274H0Z" fill="none"/>
  <path id="Path_4389" data-name="Path 4389" d="M8.59,5.35a7.905,7.905,0,0,1,2.085.233,4.512,4.512,0,0,1,1.622.641,2.682,2.682,0,0,1,1.043,1.224,4.649,4.649,0,0,1,.348,1.865,3.266,3.266,0,0,1-.578,2.039,4.193,4.193,0,0,1-1.622,1.341,3.88,3.88,0,0,1,2.2,1.515,4.608,4.608,0,0,1,.754,2.565,4.665,4.665,0,0,1-.464,2.1A3.868,3.868,0,0,1,12.7,20.328a5.982,5.982,0,0,1-1.853.815,8.533,8.533,0,0,1-2.085.292H1V5.35Zm-.464,6.527a2.628,2.628,0,0,0,1.565-.465,1.705,1.705,0,0,0,.58-1.457,2.23,2.23,0,0,0-.174-.932,1.647,1.647,0,0,0-.521-.583,2.886,2.886,0,0,0-.754-.291,4.6,4.6,0,0,0-.927-.059H4.534v3.789H8.127ZM8.3,18.754a5.118,5.118,0,0,0,.985-.117,2.026,2.026,0,0,0,.811-.35,2.073,2.073,0,0,0,.58-.641,2.8,2.8,0,0,0,.232-1.049,2.254,2.254,0,0,0-.7-1.807,3.045,3.045,0,0,0-1.854-.524H4.534v4.489H8.3ZM19.483,18.7a2.819,2.819,0,0,0,2.085.7,3.155,3.155,0,0,0,1.68-.465,2.323,2.323,0,0,0,.869-1.05h2.839a5.692,5.692,0,0,1-2.085,3.03,6.165,6.165,0,0,1-3.361.933,6.778,6.778,0,0,1-2.492-.467A4.63,4.63,0,0,1,17.165,20.1a4.63,4.63,0,0,1-1.158-1.924,6.887,6.887,0,0,1-.406-2.506,6.789,6.789,0,0,1,.406-2.448,6.291,6.291,0,0,1,1.216-1.982,5.907,5.907,0,0,1,1.854-1.282,6.468,6.468,0,0,1,2.434-.467,5.381,5.381,0,0,1,2.607.583,4.707,4.707,0,0,1,1.8,1.574,7.08,7.08,0,0,1,1.043,2.215,12.335,12.335,0,0,1,.115,2.564h-8.4a3.359,3.359,0,0,0,.812,2.274Zm3.65-6.119a2.5,2.5,0,0,0-1.8-.641,2.757,2.757,0,0,0-1.275.291,3.065,3.065,0,0,0-.811.642,1.557,1.557,0,0,0-.405.815,3.968,3.968,0,0,0-.117.758h5.214A3.1,3.1,0,0,0,23.133,12.576Zm-5.1-6.119h6.489V8.031H18.035V6.457Z" transform="translate(0.178 0.953)" fill="#fff"/>
</svg>
