<svg id="dribble" xmlns="http://www.w3.org/2000/svg" width="28.274" height="28.274" viewBox="0 0 28.274 28.274">
  <path id="Path_4386" data-name="Path 4386" d="M0,0H28.274V28.274H0Z" fill="none"/>
  <path id="Path_4387" data-name="Path 4387" d="M23.193,13.277A9.378,9.378,0,0,0,21.34,8.151a11.485,11.485,0,0,1-1.084,1.025,15.5,15.5,0,0,1-3.9,2.368c.2.412.377.812.536,1.189v0q.067.158.13.318a22.612,22.612,0,0,1,5.486.119c.243.033.471.068.688.1ZM12.136,4.5a54.387,54.387,0,0,1,3.171,5.03A13.083,13.083,0,0,0,18.9,7.449a9.284,9.284,0,0,0,.938-.889,9.387,9.387,0,0,0-6.055-2.2,9.484,9.484,0,0,0-1.645.143ZM4.654,11.421q1.2-.03,2.4-.145a37.146,37.146,0,0,0,5.728-.968Q11.311,7.746,9.6,5.328a9.446,9.446,0,0,0-4.95,6.093Zm1.8,8.291a16.815,16.815,0,0,1,1.856-2.237A14.872,14.872,0,0,1,14.386,13.6l.073-.021c-.194-.429-.377-.812-.561-1.172a35.445,35.445,0,0,1-6.712,1.228c-1.107.1-2.1.144-2.831.151a9.386,9.386,0,0,0,2.1,5.928Zm10.864,2.8A42.349,42.349,0,0,0,15.4,15.791a14.937,14.937,0,0,0-5.69,3.6,11.51,11.51,0,0,0-1.552,1.95,9.439,9.439,0,0,0,9.164,1.176Zm2.207-1.266a9.422,9.422,0,0,0,3.519-5.737,14.381,14.381,0,0,0-1.467-.278,14.164,14.164,0,0,0-3.746-.039,46.378,46.378,0,0,1,1.694,6.055Zm-5.747,4.312A11.781,11.781,0,1,1,25.562,13.781,11.781,11.781,0,0,1,13.781,25.562Z" transform="translate(0.356 0.356)" fill="#fff"/>
</svg>
