<svg xmlns="http://www.w3.org/2000/svg" xmlns:xlink="http://www.w3.org/1999/xlink" width="560" height="600" viewBox="0 0 560 600">
  <defs>
    <clipPath id="clip-path">
      <rect id="Rectangle_3714" data-name="Rectangle 3714" width="560" height="600" transform="translate(-1968 3047)" fill="#d8f2db"/>
    </clipPath>
    <filter id="Rectangle_3713" x="19.513" y="41.192" width="904.974" height="919.615" filterUnits="userSpaceOnUse">
      <feOffset dy="10" input="SourceAlpha"/>
      <feGaussianBlur stdDeviation="20" result="blur"/>
      <feFlood flood-color="#82b288" flood-opacity="0.302"/>
      <feComposite operator="in" in2="blur"/>
      <feComposite in="SourceGraphic"/>
    </filter>
    <linearGradient id="linear-gradient" x1="-0.172" y1="-0.219" x2="1.105" y2="1.147" gradientUnits="objectBoundingBox">
      <stop offset="0" stop-color="#ffa05a"/>
      <stop offset="0.241" stop-color="#ffb781"/>
      <stop offset="0.517" stop-color="#fee2a0"/>
      <stop offset="0.803" stop-color="#ffb781"/>
      <stop offset="1" stop-color="#ffa05a"/>
    </linearGradient>
  </defs>
  <g id="Group_9890" data-name="Group 9890" transform="translate(-83 -1775)">
    <rect id="Rectangle_3552" data-name="Rectangle 3552" width="560" height="600" transform="translate(83 1775)" fill="#f2e6dc"/>
    <g id="Mask_Group_63" data-name="Mask Group 63" transform="translate(2051 -1272)" clip-path="url(#clip-path)">
      <g transform="matrix(1, 0, 0, 1, -1968, 3047)" filter="url(#Rectangle_3713)">
        <rect id="Rectangle_3713-2" data-name="Rectangle 3713" width="560" height="600" transform="translate(79.51 371.19) rotate(-30)"/>
      </g>
      <g id="logo" transform="translate(-2111.913 3430.166) rotate(-30)">
        <path id="Union_2" data-name="Union 2" d="M15.691,117.6V88.786h1.853v26.96H291.7V88.786h1.856V117.6ZM186.815,76.369a7.309,7.309,0,0,1-7.318-7.315V51.428a7.32,7.32,0,0,1,7.318-7.37H201.5a7.332,7.332,0,0,1,7.373,7.37V69.054a7.322,7.322,0,0,1-7.373,7.315Zm0-23.5V67.554a1.491,1.491,0,0,0,1.494,1.5h11.753a1.445,1.445,0,0,0,1.436-1.5V52.869a1.4,1.4,0,0,0-1.436-1.442H188.309A1.443,1.443,0,0,0,186.815,52.869ZM53.864,76.369a7.311,7.311,0,0,1-7.315-7.315V51.428a7.321,7.321,0,0,1,7.315-7.37H68.555a7.333,7.333,0,0,1,7.37,7.37V69.054a7.323,7.323,0,0,1-7.37,7.315Zm0-23.5V67.554a1.494,1.494,0,0,0,1.5,1.5h11.75a1.446,1.446,0,0,0,1.442-1.5V52.869a1.4,1.4,0,0,0-1.442-1.442H55.364A1.446,1.446,0,0,0,53.864,52.869Zm222.613,23.5,2.219-7.315h18.345a1.443,1.443,0,0,0,1.441-1.5V65.338a1.43,1.43,0,0,0-1.441-1.442H283.8a7.359,7.359,0,0,1-7.321-7.37v-5.1a7.324,7.324,0,0,1,7.321-7.37h19.839l-2.219,7.37H285.291a1.443,1.443,0,0,0-1.494,1.444v2.213a1.478,1.478,0,0,0,1.494,1.444h13.191a7.369,7.369,0,0,1,7.37,7.37v5.154a7.323,7.323,0,0,1-7.37,7.315Zm-41.172,0a7.31,7.31,0,0,1-7.318-7.315V51.428a7.322,7.322,0,0,1,7.318-7.37H249.99a7.335,7.335,0,0,1,7.373,7.37V63.9H239.018l2.216-7.37h8.756V52.869a1.4,1.4,0,0,0-1.442-1.442H236.8a1.443,1.443,0,0,0-1.494,1.442V67.554a1.489,1.489,0,0,0,1.494,1.5h19.068l-2.161,7.315Zm-84.458,0a7.309,7.309,0,0,1-7.315-7.315V36.743h7.315v7.312H161.21l-2.216,7.37h-8.147V67.554a1.49,1.49,0,0,0,1.494,1.5h8.87v7.315Zm-48.49,0a7.305,7.305,0,0,1-7.315-7.315V51.428a7.317,7.317,0,0,1,7.315-7.37h14.685a7.329,7.329,0,0,1,7.37,7.37V63.9H106.07l2.216-7.37h8.756V52.869a1.4,1.4,0,0,0-1.439-1.442h-11.75a1.443,1.443,0,0,0-1.5,1.442V67.554a1.489,1.489,0,0,0,1.5,1.5h19.065l-2.164,7.315Zm-91.6,0V49.989l3.657-3.657H0V38.959H28.819v7.373H18.067V76.366ZM269.072,39.96l4.487-.5a61.4,61.4,0,0,1-4.638,11.863l-2.793.3A74.928,74.928,0,0,0,269.072,39.96ZM291.7,29.422V1.856H17.545V29.422H15.691V0L293.555,0V29.422Z" transform="translate(253 176.106)" fill="url(#linear-gradient)"/>
        <path id="Path_74" data-name="Path 74" d="M8.648,17.442a10.777,10.777,0,0,1-7.922-3.31A10.852,10.852,0,0,1-2.569,6.194,10.852,10.852,0,0,1,.726-1.744a10.777,10.777,0,0,1,7.922-3.31,10.888,10.888,0,0,1,7.968,3.295,10.812,10.812,0,0,1,3.31,7.953,10.812,10.812,0,0,1-3.31,7.953A10.888,10.888,0,0,1,8.648,17.442Zm0-2.176A8.785,8.785,0,0,0,15.069,12.6a8.71,8.71,0,0,0,2.682-6.405A8.71,8.71,0,0,0,15.069-.212,8.785,8.785,0,0,0,8.648-2.878,8.7,8.7,0,0,0,2.273-.212,8.735,8.735,0,0,0-.393,6.194,8.735,8.735,0,0,0,2.273,12.6,8.7,8.7,0,0,0,8.648,15.266ZM5.032,11.894V.463h4.26a3.469,3.469,0,0,1,2.544.935,3.228,3.228,0,0,1,.95,2.406,2.926,2.926,0,0,1-2.421,3.034L14.5,11.894H11.9L7.882,7.021H7.208v4.873ZM7.208,5.152H9.047A1.743,1.743,0,0,0,10.2,4.784,1.209,1.209,0,0,0,10.64,3.8a1.172,1.172,0,0,0-.429-.981,1.836,1.836,0,0,0-1.165-.337H7.208Z" transform="translate(558.397 162.158)" fill="#fcbe86"/>
      </g>
    </g>
  </g>
</svg>
