<svg xmlns="http://www.w3.org/2000/svg" width="40" height="40" viewBox="0 0 40 40">
  <g id="Copy_Link" data-name="Copy Link" transform="translate(-251 -632)">
    <circle id="Ellipse_1" data-name="Ellipse 1" cx="20" cy="20" r="20" transform="translate(251 632)" fill="#4048db"/>
    <g id="Group_9745" data-name="Group 9745" transform="translate(260.949 641.949)">
      <path id="Path_4424" data-name="Path 4424" d="M0,0H20.1V20.1H0Z" fill="none"/>
      <path id="Path_4425" data-name="Path 4425" d="M11.291,7.145,12.476,8.33a5.863,5.863,0,0,1,0,8.292l-.3.3A5.863,5.863,0,0,1,3.888,8.626L5.073,9.811A4.188,4.188,0,1,0,11,15.734l.3-.3a4.188,4.188,0,0,0,0-5.922L10.107,8.33l1.185-1.184Zm5.627,5.035L15.733,11A4.188,4.188,0,1,0,9.811,5.073l-.3.3a4.188,4.188,0,0,0,0,5.922L10.7,12.476,9.515,13.661,8.33,12.476a5.863,5.863,0,0,1,0-8.292l.3-.3a5.863,5.863,0,0,1,8.292,8.292Z" transform="translate(-0.353 -0.353)" fill="#fff"/>
    </g>
  </g>
</svg>
