<svg xmlns="http://www.w3.org/2000/svg" width="109.45" height="120" viewBox="0 0 109.45 120">
  <g id="Brand" transform="translate(-187.803 -102.18)">
    <path id="Path_4428" data-name="Path 4428" d="M270.72,245.129a2.679,2.679,0,0,0,1.356.368,2.636,2.636,0,0,0,1.234-.307l25.561-13.6h0a2.625,2.625,0,0,0,0-4.637L273.31,213.34a2.624,2.624,0,0,0-3.858,2.318v27.214h0A2.622,2.622,0,0,0,270.72,245.129Zm3.98-25.1,17.356,9.238L274.7,238.508Z" transform="translate(-54.1 -73.449)" fill="#4048db"/>
    <path id="Path_4429" data-name="Path 4429" d="M265.5,158.75H190.427a2.623,2.623,0,0,0-2.624,2.624v95.664a2.624,2.624,0,0,0,2.624,2.624H265.5a2.624,2.624,0,0,0,2.624-2.624V161.374a2.623,2.623,0,0,0-2.624-2.624Zm-2.624,95.667H193.053V164h69.825Z" transform="translate(0 -37.482)" fill="#4048db"/>
    <path id="Path_4430" data-name="Path 4430" d="M351.832,102.18H276.757a2.623,2.623,0,0,0-2.624,2.624v9.263a2.624,2.624,0,1,0,5.248,0v-6.639h69.825v90.417H333.1a2.624,2.624,0,1,0,0,5.248H351.83a2.623,2.623,0,0,0,2.624-2.624V104.806a2.623,2.623,0,0,0-2.624-2.624Z" transform="translate(-57.201 0)" fill="#4048db"/>
    <path id="Path_4431" data-name="Path 4431" d="M225.247,348.431h50.737a2.625,2.625,0,0,0,0-5.25H225.247a2.625,2.625,0,0,0,0,5.25Z" transform="translate(-23.071 -159.684)" fill="#4048db"/>
    <path id="Path_4432" data-name="Path 4432" d="M225.247,390.814h50.737a2.624,2.624,0,1,0,0-5.248H225.247a2.624,2.624,0,1,0,0,5.248Z" transform="translate(-23.071 -187.767)" fill="#4048db"/>
  </g>
</svg>
