<svg xmlns="http://www.w3.org/2000/svg" width="120.018" height="120" viewBox="0 0 120.018 120">
  <g id="cx" transform="translate(-92.389 -22.496)">
    <path id="Path_4427" data-name="Path 4427" d="M178.071,79.64l24.082-24.078a2.607,2.607,0,0,0,.74-1.6,2.577,2.577,0,0,0,1.585-.74A16.137,16.137,0,1,0,181.657,30.4a2.588,2.588,0,0,0-.743,1.621,2.557,2.557,0,0,0-1.589.711L155.248,56.815,121.663,23.231a2.685,2.685,0,0,0-3.691,0L93.154,48.059a2.608,2.608,0,0,0,0,3.689l33.577,33.584L104.962,107.1a2.588,2.588,0,0,0-.6.943l-8.042,21.83c-1.631,4.413-.154,6.794.872,7.819a5.7,5.7,0,0,0,4.17,1.6,10.5,10.5,0,0,0,3.644-.727l21.779-8.023a2.582,2.582,0,0,0,.99-.619l0,0,21.775-21.771,33.58,33.58a2.61,2.61,0,0,0,3.691,0L211.643,116.9a2.608,2.608,0,0,0,0-3.689Zm15-48.747a10.921,10.921,0,0,1,7.72,18.642,2.539,2.539,0,0,0-.413.561L184.787,34.506a2.606,2.606,0,0,0,.56-.415,10.847,10.847,0,0,1,7.72-3.2ZM124.58,75.8l6.713-6.715a2.61,2.61,0,0,0-3.691-3.691l-6.712,6.715-9.044-9.046,6.709-6.709a2.609,2.609,0,0,0-3.689-3.689l-6.709,6.709L98.688,49.9l21.13-21.137L151.558,60.5,130.423,81.641Zm1.353,48.591-17-15.954a2.609,2.609,0,0,0-3.689,3.689l15.967,14.915L103.2,133.673a3.779,3.779,0,0,1-2.307.346c-.073-.112-.232-.84.321-2.338v0l7.844-21.292,23.159-23.159c.017-.015.036-.027.054-.043a.614.614,0,0,0,.043-.054l24.669-24.672c.038-.034.081-.059.117-.1s.061-.079.1-.117l23.97-23.973L196.615,53.72,147.8,102.533c-.031.029-.068.049-.1.081s-.052.066-.081.1ZM184.976,136.2l-9.475-9.474,6.713-6.713a2.609,2.609,0,1,0-3.689-3.689l-6.713,6.713-9.041-9.043,6.715-6.715a2.609,2.609,0,1,0-3.689-3.689l-6.715,6.715-5.84-5.839,21.138-21.135,31.728,31.73Z" transform="translate(0 0)" fill="#4048db"/>
  </g>
</svg>
