<svg xmlns="http://www.w3.org/2000/svg" width="120.212" height="120" viewBox="0 0 120.212 120">
  <g id="performance" transform="translate(-152.079 -81.823)" fill="#4048db">
    <path d="M 252.5090484619141 201.3233795166016 C 251.6680908203125 201.3233795166016 250.8386840820312 201.1012115478516 250.1105346679688 200.680908203125 C 248.6311187744141 199.8270111083984 247.7120971679688 198.2351379394531 247.7120971679688 196.5265045166016 L 247.7120971679688 140.061279296875 C 247.7120971679688 138.7797241210938 248.2109832763672 137.5750579833984 249.1168670654297 136.6691436767578 C 250.0096893310547 135.7763977050781 251.2460784912109 135.2643585205078 252.5090179443359 135.2643585205078 C 253.7719879150391 135.2643737792969 255.0083618164062 135.7764129638672 255.9011688232422 136.6691589355469 C 256.8070373535156 137.5750732421875 257.3059387207031 138.7797546386719 257.3059387207031 140.061279296875 L 257.3059387207031 196.5265045166016 C 257.3059387207031 198.235107421875 256.3869018554688 199.8269958496094 254.9075012207031 200.6809234619141 C 254.1793670654297 201.1012268066406 253.3499908447266 201.3233795166016 252.5090484619141 201.3233795166016 Z M 178.3520812988281 201.3224792480469 C 177.5111083984375 201.3224792480469 176.6817169189453 201.1003265380859 175.9535369873047 200.6800384521484 C 174.4741668701172 199.8261108398438 173.5551452636719 198.2342376708984 173.5551452636719 196.5256195068359 L 173.5551452636719 166.5459136962891 C 173.5551452636719 165.2643585205078 174.0540466308594 164.0596618652344 174.9599304199219 163.1537628173828 C 175.8527374267578 162.2610015869141 177.0891265869141 161.7489776611328 178.3520812988281 161.7489776611328 C 179.6150512695312 161.7490081787109 180.8514404296875 162.2610321044922 181.7442016601562 163.15380859375 C 182.6500854492188 164.0596771240234 183.1489868164062 165.2643585205078 183.1489868164062 166.5459289550781 L 183.1489868164062 196.5256195068359 C 183.1489868164062 198.2342376708984 182.2299652099609 199.8261108398438 180.7505645751953 200.6800537109375 C 180.0224151611328 201.1003265380859 179.1930236816406 201.3224792480469 178.3520812988281 201.3224792480469 Z M 215.4305419921875 201.3221740722656 C 214.5895690917969 201.3221740722656 213.7601776123047 201.1000213623047 213.0320434570312 200.6797332763672 C 211.5526428222656 199.8258361816406 210.6336212158203 198.2339630126953 210.6336212158203 196.5253295898438 L 210.6336212158203 155.9508819580078 C 210.6336212158203 154.2422485351562 211.5526428222656 152.650390625 213.0320434570312 151.7964935302734 C 213.7602081298828 151.3762054443359 214.5896148681641 151.154052734375 215.4305725097656 151.154052734375 C 216.2715148925781 151.154052734375 217.1009216308594 151.3762054443359 217.8290710449219 151.7964935302734 C 219.3084564208984 152.6504058837891 220.2274780273438 154.2422790527344 220.2274780273438 155.9508819580078 L 220.2274780273438 196.5265045166016 C 220.2274780273438 198.2339477539062 219.3084564208984 199.8258209228516 217.8290710449219 200.6797332763672 C 217.1009063720703 201.1000213623047 216.271484375 201.3221740722656 215.4305419921875 201.3221740722656 Z M 157.3758697509766 142.3161926269531 C 155.6683349609375 142.3161926269531 154.076416015625 141.3970794677734 153.2213287353516 139.9175567626953 C 152.3675384521484 138.4383392333984 152.3675384521484 136.6002197265625 153.2214813232422 135.1207733154297 C 154.0764312744141 133.6414489746094 155.6683502197266 132.7223358154297 157.3758697509766 132.7223358154297 C 194.5557098388672 132.7223358154297 230.3354034423828 118.1283950805664 253.0865325927734 93.68356323242188 L 253.9867248535156 92.71637725830078 L 252.6717529296875 92.84529876708984 L 244.5755004882812 93.63910675048828 C 244.4691925048828 93.64623260498047 244.3613891601562 93.64984130859375 244.2549438476562 93.64984130859375 C 243.1483306884766 93.64984130859375 242.0676879882812 93.26293182373047 241.2120666503906 92.56039428710938 C 240.2662506103516 91.78487396240234 239.6582794189453 90.68965911865234 239.4990997314453 89.47538757324219 C 239.3944549560547 88.21337890625 239.7831726074219 86.98288726806641 240.5942993164062 86.00952911376953 C 241.4074096679688 85.03385162353516 242.5520935058594 84.42885589599609 243.8174438476562 84.30599212646484 L 264.5274963378906 82.34576416015625 C 264.6813659667969 82.33087158203125 264.8366394042969 82.3233642578125 264.9900817871094 82.3233642578125 C 266.1172485351562 82.3233642578125 267.2139282226562 82.72337341308594 268.0780639648438 83.44971466064453 C 269.0535278320312 84.27540588378906 269.6496887207031 85.43350219726562 269.7554016113281 86.70954895019531 L 269.7556762695312 86.71297454833984 L 269.7560119628906 86.71639251708984 L 271.769287109375 107.5345306396484 C 271.8909912109375 108.807487487793 271.5087890625 110.0531616210938 270.6930847167969 111.0415573120117 C 269.883056640625 112.0220489501953 268.740966796875 112.6316986083984 267.4751892089844 112.7598190307617 L 267.0233154296875 112.7598190307617 L 267.0043029785156 112.7598571777344 C 265.8058166503906 112.7598571777344 264.6585693359375 112.3161163330078 263.7738342285156 111.5103607177734 C 262.8829345703125 110.7000045776367 262.3327026367188 109.5934829711914 262.2243041992188 108.3944396972656 L 261.536376953125 100.3979339599609 L 261.439697265625 99.27413177490234 L 260.6719055175781 100.100456237793 C 254.4997711181641 106.7432250976562 247.4821319580078 112.7657470703125 239.81396484375 118.000732421875 C 232.2018890380859 123.1974105834961 223.8919219970703 127.6572189331055 215.1148681640625 131.2563018798828 C 206.3134613037109 134.8653564453125 196.9786682128906 137.6349029541016 187.3698120117188 139.4879913330078 C 177.6387634277344 141.3646545410156 167.5473480224609 142.3161926269531 157.3758697509766 142.3161926269531 Z" stroke="none"/>
    <path d="M 252.5090484619141 200.8233642578125 C 253.2623596191406 200.8233642578125 254.0052947998047 200.6243591308594 254.6575469970703 200.2478637695312 C 255.9827117919922 199.4829711914062 256.8059387207031 198.0570373535156 256.8059387207031 196.5265045166016 L 256.8059387207031 140.061279296875 C 256.8059387207031 138.9132995605469 256.3590393066406 137.8341827392578 255.547607421875 137.0227203369141 C 254.7478790283203 136.2230377197266 253.6403656005859 135.7643890380859 252.5090179443359 135.7643585205078 C 251.377685546875 135.7643585205078 250.2701568603516 136.2230224609375 249.4704284667969 137.022705078125 C 248.6589660644531 137.8341674804688 248.2120819091797 138.9132995605469 248.2120819091797 140.061279296875 L 248.2120819091797 196.5265045166016 C 248.2120819091797 198.0570373535156 249.0352935791016 199.4829864501953 250.3605041503906 200.2478637695312 C 251.0127563476562 200.6243591308594 251.7557067871094 200.8233642578125 252.5090484619141 200.8233642578125 M 178.3520660400391 200.8224792480469 C 179.1054077148438 200.8224792480469 179.8483734130859 200.6234741210938 180.5005950927734 200.2469940185547 C 181.8257598876953 199.4821014404297 182.6489868164062 198.05615234375 182.6489868164062 196.5256195068359 L 182.6489868164062 166.5459289550781 C 182.6489868164062 165.3979339599609 182.2021026611328 164.3188171386719 181.3906555175781 163.5073547363281 C 180.5909576416016 162.7076721191406 179.4834289550781 162.2490081787109 178.3520660400391 162.2489776611328 C 177.2207336425781 162.2489776611328 176.1132049560547 162.7076263427734 175.3135070800781 163.5072937011719 C 174.5020294189453 164.3187713623047 174.0551452636719 165.3979034423828 174.0551452636719 166.5459136962891 L 174.0551452636719 196.5256195068359 C 174.0551452636719 198.0561676025391 174.8783569335938 199.4821166992188 176.2034759521484 200.2469940185547 C 176.8557891845703 200.6234741210938 177.5987548828125 200.8224792480469 178.3520660400391 200.8224792480469 M 215.4305267333984 200.8221740722656 C 216.1838836669922 200.8221740722656 216.9268493652344 200.6231842041016 217.5791168212891 200.2467041015625 C 218.9042816162109 199.4818115234375 219.7274780273438 198.0563201904297 219.7274780273438 196.5265045166016 L 219.7274780273438 155.9508819580078 C 219.7274780273438 154.4203643798828 218.9042816162109 152.9944152832031 217.5791320800781 152.2295379638672 C 216.9268493652344 151.85302734375 216.1838836669922 151.6540374755859 215.4305725097656 151.6540374755859 C 214.67724609375 151.6540374755859 213.9342803955078 151.85302734375 213.281982421875 152.2295379638672 C 211.9568176269531 152.9944000244141 211.1336212158203 154.4203491210938 211.1336212158203 155.9508819580078 L 211.1336212158203 196.5253295898438 C 211.1336212158203 198.0558624267578 211.9568176269531 199.4818115234375 213.281982421875 200.2467041015625 C 213.9342346191406 200.6231842041016 214.6772003173828 200.8221740722656 215.4305267333984 200.8221740722656 M 157.3758697509766 141.8161926269531 C 167.5156402587891 141.8161926269531 177.5751953125 140.8676910400391 187.2751159667969 138.9970550537109 C 196.8515319824219 137.1502075195312 206.1543426513672 134.3901977539062 214.9251708984375 130.7936859130859 C 223.6698760986328 127.2078628540039 231.9488372802734 122.764762878418 239.5320434570312 117.5877838134766 C 247.1695404052734 112.3737640380859 254.1587677001953 106.3756637573242 260.3056335449219 99.76011657714844 L 261.8411865234375 98.10748291015625 L 262.7222595214844 108.3494186401367 C 262.8193664550781 109.4234466552734 263.3122253417969 110.4145812988281 264.1105041503906 111.1407012939453 C 264.9029541015625 111.8623962402344 265.9306640625 112.2598648071289 267.0043640136719 112.2598648071289 L 267.4492492675781 112.2598342895508 C 268.5735778808594 112.1397094726562 269.5871887207031 111.5951309204102 270.3074645996094 110.7233123779297 C 271.0381774902344 109.8378982543945 271.3805541992188 108.7221450805664 271.2716064453125 107.5826644897461 L 269.2571105957031 86.75084686279297 C 269.1624450683594 85.60794830322266 268.6285095214844 84.57071685791016 267.75634765625 83.83246612548828 C 266.9821472167969 83.18173217773438 265.9997253417969 82.82334899902344 264.9900817871094 82.82334899902344 C 264.8526611328125 82.82334899902344 264.7135925292969 82.83006286621094 264.5746154785156 82.84352874755859 L 243.8657684326172 84.80364990234375 C 242.732177734375 84.91373443603516 241.7067718505859 85.45566558837891 240.9783935546875 86.32962799072266 C 240.2543334960938 87.19851684570312 239.9060516357422 88.29611968994141 239.9964447021484 89.42243194580078 C 240.1414642333984 90.50538635253906 240.6850738525391 91.48170471191406 241.5293273925781 92.17396545410156 C 242.3674011230469 92.86209106445312 243.4473876953125 93.21141815185547 244.5344543457031 93.14073944091797 L 255.2528991699219 92.08982849121094 L 253.4525451660156 94.02421569824219 C 230.6085510253906 118.5688323974609 194.6920318603516 133.2223358154297 157.3758697509766 133.2223358154297 C 155.8463134765625 133.2223358154297 154.4202728271484 134.0457305908203 153.6544952392578 135.3707122802734 C 152.8895721435547 136.6959991455078 152.8895721435547 138.3425598144531 153.6542205810547 139.6673431396484 C 154.4202575683594 140.9928131103516 155.8462982177734 141.8161926269531 157.3758697509766 141.8161926269531 M 252.5090484619141 201.8233642578125 C 251.5944976806641 201.8233642578125 250.6799468994141 201.5868835449219 249.8605804443359 201.1139526367188 C 248.2218170166016 200.1680603027344 247.2120819091797 198.4194488525391 247.2120819091797 196.5265045166016 L 247.2120819091797 140.061279296875 C 247.2120819091797 138.6554870605469 247.7701873779297 137.3087463378906 248.7633209228516 136.3155975341797 C 249.7565155029297 135.3224487304688 251.1043853759766 134.7643585205078 252.5090179443359 134.7643585205078 L 252.5090179443359 134.7643890380859 C 253.9136505126953 134.7643890380859 255.2615203857422 135.3224487304688 256.2546997070312 136.3155975341797 C 257.2478332519531 137.3087615966797 257.8059387207031 138.6554870605469 257.8059387207031 140.061279296875 L 257.8059387207031 196.5265045166016 C 257.8059387207031 198.4193878173828 256.7961730957031 200.1680603027344 255.1574554443359 201.1139526367188 C 254.3381195068359 201.5868835449219 253.423583984375 201.8233642578125 252.5090484619141 201.8233642578125 Z M 178.3520660400391 201.8224792480469 C 177.4375305175781 201.8224792480469 176.5229797363281 201.5860137939453 175.7035980224609 201.1130828857422 C 174.0648498535156 200.1671752929688 173.0551452636719 198.4185791015625 173.0551452636719 196.5256195068359 L 173.0551452636719 196.5267944335938 L 173.0551452636719 166.5459136962891 C 173.0551452636719 165.1400909423828 173.6132202148438 163.7933807373047 174.6063842773438 162.8002014160156 C 175.5995635986328 161.8070678710938 176.9474487304688 161.2489776611328 178.3520660400391 161.2489776611328 L 178.3520660400391 161.2490081787109 C 179.7567138671875 161.2490081787109 181.1045837402344 161.8070831298828 182.0977478027344 162.8002471923828 C 183.0908966064453 163.7933959960938 183.6489868164062 165.14013671875 183.6489868164062 166.5459289550781 L 183.6489868164062 196.5256195068359 C 183.6489868164062 198.4184875488281 182.6392517089844 200.1671752929688 181.0005187988281 201.1130828857422 C 180.18115234375 201.5860137939453 179.2666168212891 201.8224792480469 178.3520660400391 201.8224792480469 Z M 215.4305267333984 201.8221740722656 C 214.5159759521484 201.8221740722656 213.6014404296875 201.5857086181641 212.7820892333984 201.1127777099609 C 211.1433563232422 200.1669006347656 210.1336212158203 198.4181976318359 210.1336212158203 196.5253295898438 L 210.1336212158203 155.9508819580078 C 210.1336212158203 154.0579376220703 211.1433563232422 152.3093109130859 212.7820892333984 151.3634490966797 C 214.4208374023438 150.4175415039062 216.4403228759766 150.4175720214844 218.0790405273438 151.3634490966797 C 219.7177124023438 152.3093109130859 220.7274780273438 154.0579833984375 220.7274780273438 155.9508819580078 L 220.7274780273438 196.5265045166016 L 220.7274780273438 196.5253295898438 C 220.7274780273438 198.4182586669922 219.7177429199219 200.1669006347656 218.0790405273438 201.1127777099609 C 217.2596435546875 201.5857086181641 216.3450775146484 201.8221740722656 215.4305267333984 201.8221740722656 Z M 157.3758697509766 142.8161926269531 C 155.4842071533203 142.8161926269531 153.7355041503906 141.8064575195312 152.7884216308594 140.167724609375 C 151.8425598144531 138.5290222167969 151.8425598144531 136.5095520019531 152.7884216308594 134.8708190917969 C 153.7355194091797 133.2320709228516 155.4841156005859 132.2223358154297 157.3758697509766 132.2223358154297 C 194.454345703125 132.2223358154297 229.9437561035156 117.815315246582 252.7205352783203 93.34291839599609 L 244.6168365478516 94.13746643066406 C 243.2700500488281 94.22966003417969 241.9387664794922 93.80401611328125 240.8947601318359 92.94683074951172 C 239.8507537841797 92.09078216552734 239.1744232177734 90.86824798583984 239.0018157958984 89.52864837646484 C 238.8835906982422 88.14046478271484 239.3175201416016 86.76065063476562 240.2101898193359 85.68944549560547 C 241.1029205322266 84.61824798583984 242.3810729980469 83.943115234375 243.7691192626953 83.80833435058594 L 264.4803771972656 81.84798431396484 C 265.8966979980469 81.71079254150391 267.3096313476562 82.15065765380859 268.3997802734375 83.06696319580078 C 269.4710083007812 83.97371673583984 270.1378173828125 85.26954650878906 270.2536926269531 86.66828155517578 L 272.2669677734375 107.4863967895508 C 272.4005737304688 108.8839645385742 271.9725341796875 110.2768020629883 271.0787048339844 111.3598327636719 C 270.1849365234375 112.4416656494141 268.8973388671875 113.1250686645508 267.4998168945312 113.2598342895508 L 267.0233154296875 113.2598342895508 C 265.6996154785156 113.2642135620117 264.4173278808594 112.7726898193359 263.4371643066406 111.8800354003906 C 262.4558410644531 110.987434387207 261.8457336425781 109.7601470947266 261.726318359375 108.4394683837891 L 261.0382080078125 100.4407958984375 C 236.0367279052734 127.3485794067383 198.6374053955078 142.8161926269531 157.3758697509766 142.8161926269531 Z" stroke="none" fill="#f4f8fe"/>
  </g>
</svg>
