<svg xmlns="http://www.w3.org/2000/svg" width="120.127" height="120" viewBox="0 0 120.127 120">
  <g id="Technology" transform="translate(-92.389 -22.496)">
    <path id="Path_4433" data-name="Path 4433" d="M193.646,64.331a10.308,10.308,0,0,0-9.978,7.831H170.531a12.131,12.131,0,0,0-9.726-5.305,15.336,15.336,0,0,0-1.39-4.043l14.653-14.653a10.8,10.8,0,0,0,5.305,1.516,10.485,10.485,0,1,0-8.843-5.053L156.51,58.9a16.554,16.554,0,0,0-9.727-5.052V34.9a10.281,10.281,0,0,0,7.831-9.978,10.405,10.405,0,0,0-10.358-10.358,10.25,10.25,0,0,0-2.526,20.21V53.721a16.063,16.063,0,0,0-9.6,4.926L117.857,44.5a9.632,9.632,0,0,0,1.515-5.305,10.485,10.485,0,1,0-5.053,8.843L129.1,62.817c-.253.632-.632,1.264-.885,1.894a13.184,13.184,0,0,0-10.989,7.073H104.341a10.281,10.281,0,0,0-9.979-7.831A10.405,10.405,0,0,0,84,74.311a10.321,10.321,0,0,0,20.337,2.4h11.495c0,.5-.126.885-.126,1.39a13.383,13.383,0,0,0,8.337,12.379l-10.105,10.105a10.805,10.805,0,0,0-5.305-1.516,10.485,10.485,0,1,0,8.843,5.053l12.505-12.505h11.242v22.611a10.281,10.281,0,0,0-7.831,9.979,10.359,10.359,0,1,0,12.885-9.979l0-22.737h10.989l12.884,12.884a10.806,10.806,0,0,0-1.515,5.305,10.358,10.358,0,1,0,10.358-10.358,10.815,10.815,0,0,0-5.305,1.516l-9.853-9.853a12.24,12.24,0,0,0,8.969-11.874c0-.758-.126-1.39-.126-2.021H183.8a10.281,10.281,0,0,0,9.978,7.831,10.3,10.3,0,1,0-.128-20.589Zm-14.4-30.316a5.431,5.431,0,1,1-5.431,5.431A5.472,5.472,0,0,1,179.246,34.016Zm-70.232,10.61a5.431,5.431,0,1,1,5.431-5.431A5.391,5.391,0,0,1,109.014,44.626ZM94.362,79.615a5.431,5.431,0,1,1,5.431-5.431A5.391,5.391,0,0,1,94.362,79.615Zm14.4,35.116a5.431,5.431,0,1,1,5.431-5.431A5.472,5.472,0,0,1,108.762,114.731Zm40.421,9.347a5.431,5.431,0,1,1-5.431-5.431A5.391,5.391,0,0,1,149.183,124.078Zm29.684-19.831a5.431,5.431,0,1,1-5.431,5.431A5.557,5.557,0,0,1,178.867,104.247ZM138.825,24.794a5.431,5.431,0,1,1,5.432,5.431A5.472,5.472,0,0,1,138.825,24.794Zm21.6,61.768h-31.2a8.463,8.463,0,1,1,0-16.926h.758a2.385,2.385,0,0,0,2.653-1.894,11.893,11.893,0,0,1,11.621-9.221,12.111,12.111,0,0,1,12,11.242,2.209,2.209,0,0,0,.885,1.768,2.556,2.556,0,0,0,1.894.5,5.639,5.639,0,0,1,1.39-.127,7.326,7.326,0,0,1,0,14.653Zm33.221-6.443a5.431,5.431,0,1,1,5.431-5.431A5.391,5.391,0,0,1,193.647,80.12Z" transform="translate(8.385 7.932)" fill="#4048db"/>
  </g>
</svg>
