<svg xmlns="http://www.w3.org/2000/svg" xmlns:xlink="http://www.w3.org/1999/xlink" width="52.202" height="42" viewBox="0 0 52.202 42">
  <defs>
    <linearGradient id="linear-gradient" x1="0.116" y1="0.203" x2="0.892" y2="0.789" gradientUnits="objectBoundingBox">
      <stop offset="0" stop-color="#ff9379"/>
      <stop offset="1" stop-color="#f75e39"/>
    </linearGradient>
  </defs>
  <g id="surface1" transform="translate(-182.402 -78.606)">
    <g id="Group_9733" data-name="Group 9733" transform="translate(182.402 78.607)">
      <g id="Group_9732" data-name="Group 9732" transform="translate(0 0)">
        <path id="Path_3009" data-name="Path 3009" d="M48.706-296.243v-5.1H41.25v41.163h7.456v-22.37c0-7.152,4.261-12.782,12.1-12.782,8.979,0,11.033,5.326,11.033,13.087v22.065h7.381v-22.142c0-11.794-5.326-19.63-17.881-19.63C56.163-301.949,51.75-300.656,48.706-296.243Zm0,0" transform="translate(-41.25 301.949)"/>
      </g>
    </g>
    <g id="Group_9735" data-name="Group 9735" transform="translate(212.455 120.378)">
      <g id="Group_9734" data-name="Group 9734">
        <path id="Path_3010" data-name="Path 3010"/>
      </g>
    </g>
    <g id="Group_9737" data-name="Group 9737" transform="translate(225.245 111.248)">
      <g id="Group_9736" data-name="Group 9736">
        <path id="Path_3011" data-name="Path 3011" d="M26.565-66A4.521,4.521,0,0,0,22-61.282a4.8,4.8,0,0,0,4.565,4.641,4.791,4.791,0,0,0,4.793-4.641A4.533,4.533,0,0,0,26.565-66Zm0,0" transform="translate(-22 66)" fill="url(#linear-gradient)"/>
      </g>
    </g>
  </g>
</svg>
