<svg xmlns="http://www.w3.org/2000/svg" width="50.288" height="42.314" viewBox="0 0 50.288 42.314">
  <path id="quite" d="M54.048,58.869c0-6.184-4.394-9.927-9.765-9.927a6.127,6.127,0,0,0-3.255.814c.163-6.673,5.045-14.159,12.206-15.786V26.32C44.121,27.3,31.589,35.6,31.589,54.8c0,9.276,5.533,13.833,11.88,13.833C49.491,68.634,54.048,64.24,54.048,58.869Zm-27.829,0c0-6.184-4.394-9.927-9.765-9.927a6.127,6.127,0,0,0-3.255.814c.163-6.673,5.045-14.159,12.206-15.786V26.32C16.291,27.3,3.76,35.6,3.76,54.8c0,9.276,5.533,13.833,11.88,13.833C21.662,68.634,26.219,64.24,26.219,58.869Z" transform="translate(-3.76 -26.32)" fill="#CAD5E5"/>
</svg>
