<svg width="256" height="256" xmlns="http://www.w3.org/2000/svg" xml:space="preserve" version="1.1">
 <desc>Created with Fabric.js 1.7.22</desc>

 <g>
  <title>Layer 1</title>
  <g id="svg_1" transform="rotate(-180 128 128) translate(128 128) scale(0.72 0.72)">
   <g id="svg_2" fill-rule=" nonzero" fill=" none" stroke-miterlimit="10" stroke-linejoin=" miter" stroke-linecap=" butt" stroke-dasharray=" none" stroke-width="0" stroke=" none" transform="translate(-175.05 -175.05000000000004) scale(3.89 3.89)">
    <path id="svg_3" fill-rule=" nonzero" fill=" rgb(64,72,219)" stroke-miterlimit="10" stroke-linejoin=" miter" stroke-dasharray=" none" stroke=" none" stroke-linecap=" butt" d="m24.316,44.248l16.193,-15.342c0.66,-0.625 1.748,-0.157 1.748,0.752l0,7.873c0,0.572 0.464,1.036 1.036,1.036l22.149,0c0.572,0 1.036,0.464 1.036,1.036l0,10.795c0,0.572 -0.464,1.036 -1.036,1.036l-22.149,0c-0.572,0 -1.036,0.464 -1.036,1.036l0,7.873c0,0.909 -1.088,1.377 -1.748,0.752l-16.193,-15.343c-0.431,-0.409 -0.431,-1.095 0,-1.504z"/>
    <path id="svg_4" fill-rule=" nonzero" fill=" rgb(64,72,219)" stroke-miterlimit="10" stroke-linejoin=" miter" stroke-dasharray=" none" stroke=" none" stroke-linecap=" butt" d="m45,90c24.813,0 45,-20.187 45,-45c0,-24.813 -20.187,-45 -45,-45c-24.813,0 -45,20.187 -45,45c0,24.813 20.187,45 45,45zm0,-82c20.402,0 37,16.598 37,37c0,20.402 -16.598,37 -37,37c-20.402,0 -37,-16.598 -37,-37c0,-20.402 16.598,-37 37,-37z"/>
   </g>
  </g>
 </g>
</svg>